Patient4_TMGait_0pt4_02_right_11_EMG.mot
version=1
nRows=13
nColumns=33
inDegrees=no
endheader
time	1LAddLong	2LGlutMax	3LGlutMed	4LIliopsoas	5LSemiMemb	6LBicFemLong	7LRecFem	8LVastMed	9LVastLat	10LGasMed	11LTibAnt	12lTibPost	13LPeroneusLong	14LSol	15LExtDigLong	16LFlexDigLong	17RAddLong	18RGlutMax	19RGlutMed	20RIliopsoas	21RSemiMemb	22RBicFemLong	23RRecFem	24RVastMed	25RVastLat	26RGasMed	27RTibAnt	28RTibPost	29RPeroneusLong	30RSol	31RExtDigLong	32RFlexDigLong
14.965	-0.005951	-0.065308	-0.043335	0.00351	0.009918	-0.029449	0.036011	0.006714	0.12024	0.007324	-0.008545	-0.002899	-0.025635	0.049286	0.005188	-0.010681	-0.014648	0.24704	-0.042725	0.015259	0.11902	0.051117	-0.072327	-0.056305	0.022278	-0.001221	-0.22995	0.022736	-0.017395	-0.27756	-0.002441	-0.005035
14.966	-0.006866	-0.06958	-0.061646	0.015411	0.051117	-0.052795	0.11353	0.002747	0.029907	0.006561	-0.005646	-0.000916	-0.018921	0.041962	0.001831	-0.007782	-0.002899	0.26443	-0.12863	-0.003662	0.04425	0.027924	-0.10147	-0.050354	0.010529	0.002136	-0.66009	0.003967	0.073242	-0.44815	-0.002899	-0.004883
14.967	-0.001221	-0.077972	-0.066833	-0.001831	0.03067	-0.079803	0.10971	0.00824	-0.066528	0.015717	-0.000305	-0.002441	-0.017548	0.048676	0.006104	-0.013885	0.0177	0.15595	-0.072174	-0.13473	-0.14969	0.041656	-0.1181	-0.084839	0.015869	-0.014954	-0.79392	-0.033722	-0.016022	-0.73059	0.000153	-0.012207
14.968	-0.003815	-0.06134	-0.007019	-0.001831	0.016785	-0.075989	0.022736	0.010986	-0.16434	0.009308	0.003052	-0.001831	-0.015106	0.039063	-0.007477	-0.005188	0.02655	0.15564	-0.12802	-0.28351	-0.024261	0.008698	-0.12482	-0.089569	0.00885	-0.016327	-0.32242	-0.11856	-0.10468	-0.51239	0.000153	-0.011597
14.969	0.010223	0.026855	0.060272	0.007782	-0.012817	-0.001373	-0.0914	0.024414	-0.177	0.021515	0.000305	-0.003357	-0.008392	0.037079	-0.002136	-0.002289	0.04425	0.14862	0.19241	-0.24277	-0.01709	0.015869	-0.14267	-0.071869	-0.001984	-0.001373	0.31586	0.042877	-0.12695	-0.13184	0.001373	-0.003662
14.97	0.024719	0.13123	0.039978	0.005798	-0.051575	-0.1181	-0.1268	0.021973	-0.14221	0.017242	-0.002289	-0.006866	-0.019073	0.046997	0.052338	-0.006561	0.050354	0.14801	-0.091705	-0.020447	-0.051422	-0.019073	-0.18265	-0.088806	-0.00824	0.014954	1.0469	0.031738	0.098572	-0.28931	0.001831	0.005798
14.971	0.023041	0.16068	0.019836	-0.002594	-0.027771	-0.24918	-0.06546	0.017548	-0.11292	0.010681	-0.00412	-0.007172	-0.01236	0.025787	0.057983	-0.014343	0.015259	0.14526	-0.033722	0.14572	-0.071259	-0.002441	-0.17517	-0.032501	0.012207	0.024414	1.1729	0.000305	0.30441	-0.32623	-0.002289	0.005646
14.972	0.018616	0.19806	0.031433	-0.003204	0.007172	-0.30518	-0.067902	0.012207	-0.093231	0.012054	-0.006866	-0.002594	-0.015717	0.037537	-0.017395	0.000916	0.006866	0.12772	0.34851	0.24674	-0.13306	-0.078125	-0.23025	-0.009918	0.003815	0.017853	0.081787	-0.011292	0.12329	-0.11932	-0.000916	-0.017242
14.973	0.02182	0.23697	-0.008545	0.006866	0.037994	-0.12726	-0.1178	0.005798	-0.072174	0.007629	-0.002747	-0.003052	-0.007935	0.041809	-0.045929	-0.010223	0.001678	0.1387	0.32471	0.18646	-0.12558	-0.17395	-0.22568	0.028992	0.000305	0.00885	-0.49652	-0.019226	-0.088806	0.057831	-0.002899	-0.011292
14.974	0.017853	0.22324	0.004883	0.016785	0.039368	0.003815	-0.11963	-0.018311	-0.026093	0.005951	-0.001373	-0.00351	-0.005341	0.028687	-0.029602	-0.007172	0.005798	0.073547	-0.168	0.072937	-0.073242	-0.19531	-0.20615	0.02533	0.007477	0.007324	-0.41809	-0.012512	0.17899	0.082092	-0.001831	-0.017242
14.975	0.00824	0.2327	-0.03006	0.013123	-0.011139	0.009003	-0.098114	-0.018005	-0.007629	0.010681	-0.011749	-0.008087	-0.009155	0.03006	-0.027161	-0.004578	0.022888	0.044098	-0.26916	-0.017853	0.019684	-0.12207	-0.20477	0.0177	0.009155	0.001984	-0.22598	-0.00946	0.20264	0.2179	-0.002136	-0.012817
14.976	0.002747	0.26901	0.012054	0.011597	-0.016479	0.0354	-0.095215	-0.027924	0.002594	0.014801	-0.002594	0.000763	-0.015869	0.033569	-0.018463	-0.009918	0.052338	0.028534	-0.32181	-0.035858	0.16357	-0.15625	-0.19531	-0.009003	0.006561	-0.00824	-0.032043	-0.015869	0.04715	0.31479	0.000305	-0.016632
14.977	-0.005646	0.18478	0.18631	0.000763	-0.052795	0.022583	-0.067596	-0.037689	0.15717	0.014801	-0.006561	-0.010376	-0.01358	0.038147	-0.009613	-0.013275	-0.005798	0.088043	-0.19089	-0.055237	0.07782	-0.063782	-0.19775	0.0354	0.015564	-0.005493	-0.12955	-0.010071	0.048981	0.26977	-0.002594	-0.011749
